<svg width="176" height="40" viewBox="0 0 176 40" fill="none" xmlns="http://www.w3.org/2000/svg">
<path d="M43.136 25.856C43.6213 26.584 44.2373 27.1253 44.984 27.48C45.7493 27.816 46.5333 27.984 47.336 27.984C47.784 27.984 48.2413 27.9187 48.708 27.788C49.1747 27.6387 49.5947 27.424 49.968 27.144C50.36 26.864 50.6773 26.5187 50.92 26.108C51.1627 25.6973 51.284 25.2213 51.284 24.68C51.284 23.9147 51.0413 23.336 50.556 22.944C50.0707 22.5333 49.464 22.1973 48.736 21.936C48.0267 21.656 47.2427 21.3947 46.384 21.152C45.544 20.8907 44.76 20.536 44.032 20.088C43.3227 19.64 42.7253 19.0427 42.24 18.296C41.7547 17.5307 41.512 16.504 41.512 15.216C41.512 14.6373 41.6333 14.0213 41.876 13.368C42.1373 12.7147 42.5387 12.1173 43.08 11.576C43.6213 11.0347 44.312 10.5867 45.152 10.232C46.0107 9.85867 47.0373 9.672 48.232 9.672C49.3147 9.672 50.3507 9.82133 51.34 10.12C52.3293 10.4187 53.1973 11.0253 53.944 11.94L51.76 13.928C51.424 13.4053 50.948 12.9853 50.332 12.668C49.716 12.3507 49.016 12.192 48.232 12.192C47.4853 12.192 46.86 12.2947 46.356 12.5C45.8707 12.6867 45.4787 12.9387 45.18 13.256C44.8813 13.5547 44.6667 13.8813 44.536 14.236C44.424 14.5907 44.368 14.9173 44.368 15.216C44.368 16.056 44.6107 16.7 45.096 17.148C45.5813 17.596 46.1787 17.96 46.888 18.24C47.616 18.52 48.4 18.772 49.24 18.996C50.0987 19.22 50.8827 19.5373 51.592 19.948C52.32 20.34 52.9267 20.8813 53.412 21.572C53.8973 22.244 54.14 23.1773 54.14 24.372C54.14 25.324 53.9533 26.1827 53.58 26.948C53.2253 27.7133 52.74 28.3573 52.124 28.88C51.508 29.4027 50.78 29.804 49.94 30.084C49.1 30.364 48.204 30.504 47.252 30.504C45.9827 30.504 44.7787 30.28 43.64 29.832C42.5013 29.384 41.596 28.6933 40.924 27.76L43.136 25.856ZM64.5746 18.912H60.9626V24.932C60.9626 25.3053 60.9719 25.6787 60.9906 26.052C61.0093 26.4067 61.0746 26.7333 61.1866 27.032C61.3173 27.312 61.5039 27.5453 61.7466 27.732C62.0079 27.9 62.3813 27.984 62.8666 27.984C63.1653 27.984 63.4733 27.956 63.7906 27.9C64.1079 27.844 64.3973 27.7413 64.6586 27.592V29.888C64.3599 30.056 63.9679 30.168 63.4826 30.224C63.0159 30.2987 62.6519 30.336 62.3906 30.336C61.4199 30.336 60.6639 30.2053 60.1226 29.944C59.5999 29.664 59.2079 29.3093 58.9466 28.88C58.7039 28.4507 58.5546 27.9747 58.4986 27.452C58.4613 26.9107 58.4426 26.3693 58.4426 25.828V18.912H55.5306V16.728H58.4426V13.004H60.9626V16.728H64.5746V18.912ZM67.8819 18.352C68.5912 17.6987 69.4125 17.2133 70.3459 16.896C71.2792 16.56 72.2125 16.392 73.1459 16.392C74.1165 16.392 74.9472 16.5133 75.6379 16.756C76.3472 16.9987 76.9259 17.3253 77.3739 17.736C77.8219 18.1467 78.1485 18.6227 78.3539 19.164C78.5779 19.6867 78.6899 20.2373 78.6899 20.816V27.592C78.6899 28.0587 78.6992 28.488 78.7179 28.88C78.7365 29.272 78.7645 29.6453 78.8019 30H76.5619C76.5059 29.328 76.4779 28.656 76.4779 27.984H76.4219C75.8619 28.8427 75.1992 29.4493 74.4339 29.804C73.6685 30.1587 72.7819 30.336 71.7739 30.336C71.1579 30.336 70.5699 30.252 70.0099 30.084C69.4499 29.916 68.9552 29.664 68.5259 29.328C68.1152 28.992 67.7885 28.5813 67.5459 28.096C67.3032 27.592 67.1819 27.0133 67.1819 26.36C67.1819 25.5013 67.3685 24.7827 67.7419 24.204C68.1339 23.6253 68.6565 23.1587 69.3099 22.804C69.9819 22.4307 70.7565 22.1693 71.6339 22.02C72.5299 21.852 73.4819 21.768 74.4899 21.768H76.3379V21.208C76.3379 20.872 76.2725 20.536 76.1419 20.2C76.0112 19.864 75.8152 19.5653 75.5539 19.304C75.2925 19.024 74.9659 18.8093 74.5739 18.66C74.1819 18.492 73.7152 18.408 73.1739 18.408C72.6885 18.408 72.2592 18.4547 71.8859 18.548C71.5312 18.6413 71.2045 18.7627 70.9059 18.912C70.6072 19.0427 70.3365 19.2013 70.0939 19.388C69.8512 19.5747 69.6179 19.752 69.3939 19.92L67.8819 18.352ZM74.9939 23.616C74.3965 23.616 73.7805 23.6533 73.1459 23.728C72.5299 23.784 71.9605 23.9053 71.4379 24.092C70.9339 24.2787 70.5139 24.54 70.1779 24.876C69.8605 25.212 69.7019 25.6413 69.7019 26.164C69.7019 26.9293 69.9539 27.48 70.4579 27.816C70.9805 28.152 71.6805 28.32 72.5579 28.32C73.2485 28.32 73.8365 28.208 74.3219 27.984C74.8072 27.7413 75.1992 27.4333 75.4979 27.06C75.7965 26.6867 76.0112 26.276 76.1419 25.828C76.2725 25.3613 76.3379 24.904 76.3379 24.456V23.616H74.9939ZM91.8374 20.256C91.3707 19.7707 90.8761 19.4067 90.3534 19.164C89.8494 18.9027 89.2427 18.772 88.5334 18.772C87.8427 18.772 87.2361 18.9027 86.7134 19.164C86.2094 19.4067 85.7801 19.752 85.4254 20.2C85.0894 20.6293 84.8281 21.1333 84.6414 21.712C84.4734 22.272 84.3894 22.86 84.3894 23.476C84.3894 24.092 84.4921 24.68 84.6974 25.24C84.9027 25.7813 85.1921 26.2573 85.5654 26.668C85.9387 27.0787 86.3867 27.4053 86.9094 27.648C87.4321 27.872 88.0201 27.984 88.6734 27.984C89.3827 27.984 89.9894 27.8627 90.4934 27.62C90.9974 27.3587 91.4641 26.9853 91.8934 26.5L93.6854 28.292C93.0321 29.02 92.2667 29.5427 91.3894 29.86C90.5307 30.1773 89.6161 30.336 88.6454 30.336C87.6187 30.336 86.6761 30.168 85.8174 29.832C84.9774 29.496 84.2494 29.0293 83.6334 28.432C83.0174 27.816 82.5414 27.088 82.2054 26.248C81.8694 25.3893 81.7014 24.4467 81.7014 23.42C81.7014 22.3933 81.8694 21.4507 82.2054 20.592C82.5414 19.7333 83.0081 18.996 83.6054 18.38C84.2214 17.764 84.9494 17.288 85.7894 16.952C86.6481 16.5973 87.6001 16.42 88.6454 16.42C89.6161 16.42 90.5401 16.5973 91.4174 16.952C92.3134 17.288 93.0881 17.8107 93.7414 18.52L91.8374 20.256ZM95.8532 8.832H98.3732V22.496L104.085 16.756H107.585L101.397 22.776L108.117 30H104.533L98.3732 23.112V30H95.8532V8.832ZM111.605 25.856C112.09 26.584 112.706 27.1253 113.453 27.48C114.218 27.816 115.002 27.984 115.805 27.984C116.253 27.984 116.71 27.9187 117.177 27.788C117.643 27.6387 118.063 27.424 118.437 27.144C118.829 26.864 119.146 26.5187 119.389 26.108C119.631 25.6973 119.753 25.2213 119.753 24.68C119.753 23.9147 119.51 23.336 119.025 22.944C118.539 22.5333 117.933 22.1973 117.205 21.936C116.495 21.656 115.711 21.3947 114.853 21.152C114.013 20.8907 113.229 20.536 112.501 20.088C111.791 19.64 111.194 19.0427 110.709 18.296C110.223 17.5307 109.981 16.504 109.981 15.216C109.981 14.6373 110.102 14.0213 110.345 13.368C110.606 12.7147 111.007 12.1173 111.549 11.576C112.09 11.0347 112.781 10.5867 113.621 10.232C114.479 9.85867 115.506 9.672 116.701 9.672C117.783 9.672 118.819 9.82133 119.809 10.12C120.798 10.4187 121.666 11.0253 122.413 11.94L120.229 13.928C119.893 13.4053 119.417 12.9853 118.801 12.668C118.185 12.3507 117.485 12.192 116.701 12.192C115.954 12.192 115.329 12.2947 114.825 12.5C114.339 12.6867 113.947 12.9387 113.649 13.256C113.35 13.5547 113.135 13.8813 113.005 14.236C112.893 14.5907 112.837 14.9173 112.837 15.216C112.837 16.056 113.079 16.7 113.565 17.148C114.05 17.596 114.647 17.96 115.357 18.24C116.085 18.52 116.869 18.772 117.709 18.996C118.567 19.22 119.351 19.5373 120.061 19.948C120.789 20.34 121.395 20.8813 121.881 21.572C122.366 22.244 122.609 23.1773 122.609 24.372C122.609 25.324 122.422 26.1827 122.049 26.948C121.694 27.7133 121.209 28.3573 120.593 28.88C119.977 29.4027 119.249 29.804 118.409 30.084C117.569 30.364 116.673 30.504 115.721 30.504C114.451 30.504 113.247 30.28 112.109 29.832C110.97 29.384 110.065 28.6933 109.393 27.76L111.605 25.856ZM124.335 16.728H127.163L130.159 26.64H130.215L133.379 16.728H136.039L139.399 26.64H139.455L142.311 16.728H144.971L140.687 30H138.139L134.639 20.088H134.583L131.419 30H128.703L124.335 16.728ZM147.233 18.352C147.943 17.6987 148.764 17.2133 149.697 16.896C150.631 16.56 151.564 16.392 152.497 16.392C153.468 16.392 154.299 16.5133 154.989 16.756C155.699 16.9987 156.277 17.3253 156.725 17.736C157.173 18.1467 157.5 18.6227 157.705 19.164C157.929 19.6867 158.041 20.2373 158.041 20.816V27.592C158.041 28.0587 158.051 28.488 158.069 28.88C158.088 29.272 158.116 29.6453 158.153 30H155.913C155.857 29.328 155.829 28.656 155.829 27.984H155.773C155.213 28.8427 154.551 29.4493 153.785 29.804C153.02 30.1587 152.133 30.336 151.125 30.336C150.509 30.336 149.921 30.252 149.361 30.084C148.801 29.916 148.307 29.664 147.877 29.328C147.467 28.992 147.14 28.5813 146.897 28.096C146.655 27.592 146.533 27.0133 146.533 26.36C146.533 25.5013 146.72 24.7827 147.093 24.204C147.485 23.6253 148.008 23.1587 148.661 22.804C149.333 22.4307 150.108 22.1693 150.985 22.02C151.881 21.852 152.833 21.768 153.841 21.768H155.689V21.208C155.689 20.872 155.624 20.536 155.493 20.2C155.363 19.864 155.167 19.5653 154.905 19.304C154.644 19.024 154.317 18.8093 153.925 18.66C153.533 18.492 153.067 18.408 152.525 18.408C152.04 18.408 151.611 18.4547 151.237 18.548C150.883 18.6413 150.556 18.7627 150.257 18.912C149.959 19.0427 149.688 19.2013 149.445 19.388C149.203 19.5747 148.969 19.752 148.745 19.92L147.233 18.352ZM154.345 23.616C153.748 23.616 153.132 23.6533 152.497 23.728C151.881 23.784 151.312 23.9053 150.789 24.092C150.285 24.2787 149.865 24.54 149.529 24.876C149.212 25.212 149.053 25.6413 149.053 26.164C149.053 26.9293 149.305 27.48 149.809 27.816C150.332 28.152 151.032 28.32 151.909 28.32C152.6 28.32 153.188 28.208 153.673 27.984C154.159 27.7413 154.551 27.4333 154.849 27.06C155.148 26.6867 155.363 26.276 155.493 25.828C155.624 25.3613 155.689 24.904 155.689 24.456V23.616H154.345ZM161.697 16.728H164.217V18.772H164.273C164.59 18.0627 165.141 17.4933 165.925 17.064C166.709 16.616 167.614 16.392 168.641 16.392C169.276 16.392 169.882 16.4947 170.461 16.7C171.058 16.8867 171.572 17.1853 172.001 17.596C172.449 18.0067 172.804 18.5387 173.065 19.192C173.326 19.8267 173.457 20.5827 173.457 21.46V30H170.937V22.16C170.937 21.544 170.853 21.0213 170.685 20.592C170.517 20.144 170.293 19.7893 170.013 19.528C169.733 19.248 169.406 19.052 169.033 18.94C168.678 18.8093 168.305 18.744 167.913 18.744C167.39 18.744 166.905 18.828 166.457 18.996C166.009 19.164 165.617 19.4347 165.281 19.808C164.945 20.1627 164.684 20.62 164.497 21.18C164.31 21.74 164.217 22.4027 164.217 23.168V30H161.697V16.728Z" fill="black"/>
<path d="M20 37.6396L14 31.6998L2 19.8198V7.93989L14 19.8198L19.9999 25.7597L14 19.8198L19.9999 13.8799L26 19.8198L20 25.7597L26 19.8198V31.6997L20 37.6396ZM14.0001 31.6998L20 25.7599L14.0001 31.6998ZM14.0001 7.94005H20V13.88L14 19.8198L14.0001 7.94005ZM14.0001 7.94005L20 2L26 7.93989L14.0001 7.94005Z" fill="#5725FF" stroke="#5725FF" stroke-width="4" stroke-linejoin="round"/>
</svg>
